<svg width="127" height="41" viewBox="0 0 127 41" fill="none" xmlns="http://www.w3.org/2000/svg">
<path d="M10.8516 10.7814H4.39347V14.8411H12.0216V18H0.286946V0.965518H12.045V4.13608H4.39347V7.72783H10.8516V10.7814ZM20.3627 6.62808L23.1472 0.965518H27.8387L23.077 9.41256L27.9674 18H23.2291L20.3627 12.2321L17.4963 18H12.7697L17.6484 9.41256L12.8984 0.965518H17.5782L20.3627 6.62808ZM33.7346 12.2204V18H29.6281V0.965518H36.4255C37.728 0.965518 38.8785 1.20731 39.8768 1.69089C40.883 2.16667 41.6591 2.84914 42.205 3.7383C42.7588 4.61966 43.0357 5.62192 43.0357 6.74507C43.0357 8.4064 42.439 9.73625 41.2457 10.7346C40.0601 11.7252 38.43 12.2204 36.3553 12.2204H33.7346ZM33.7346 9.04988H36.4255C37.2211 9.04988 37.8255 8.85099 38.2389 8.4532C38.6601 8.05542 38.8707 7.49384 38.8707 6.76847C38.8707 5.97291 38.6562 5.33723 38.2272 4.86145C37.7982 4.38567 37.2133 4.14388 36.4723 4.13608H33.7346V9.04988ZM49.657 14.8411H56.8054V18H45.5505V0.965518H49.657V14.8411ZM72.5289 9.83374C72.5289 11.4951 72.2209 12.9653 71.6047 14.2445C70.9885 15.5236 70.111 16.5103 68.9723 17.2044C67.8413 17.8908 66.5505 18.234 65.0998 18.234C63.649 18.234 62.3621 17.9025 61.2389 17.2395C60.1158 16.5688 59.2383 15.6133 58.6065 14.3732C57.9826 13.133 57.655 11.7096 57.6238 10.1028V9.14347C57.6238 7.47434 57.928 6.00411 58.5363 4.73276C59.1525 3.45361 60.03 2.46695 61.1687 1.77278C62.3153 1.07861 63.6178 0.731528 65.0764 0.731528C66.5193 0.731528 67.8062 1.07471 68.9372 1.76108C70.0681 2.44746 70.9456 3.42631 71.5696 4.69766C72.2014 5.96121 72.5211 7.41195 72.5289 9.04988V9.83374ZM68.3522 9.12007C68.3522 7.42755 68.0675 6.1445 67.4982 5.27094C66.9366 4.38957 66.1293 3.94889 65.0764 3.94889C63.0172 3.94889 61.9292 5.49323 61.8122 8.5819L61.8005 9.83374C61.8005 11.5029 62.0774 12.7859 62.6312 13.6829C63.1849 14.5798 64.0078 15.0283 65.0998 15.0283C66.1371 15.0283 66.9366 14.5876 67.4982 13.7063C68.0597 12.8249 68.3444 11.5575 68.3522 9.90394V9.12007ZM81.2913 11.9865H79.0683V18H74.9618V0.965518H81.6656C83.6858 0.965518 85.2652 1.414 86.4039 2.31096C87.5427 3.20792 88.1121 4.47537 88.1121 6.1133C88.1121 7.29885 87.8703 8.28161 87.3867 9.06158C86.9109 9.84154 86.1621 10.4733 85.1404 10.9569L88.697 17.8245V18H84.298L81.2913 11.9865ZM79.0683 8.81589H81.6656C82.4456 8.81589 83.0306 8.6131 83.4206 8.20751C83.8183 7.79413 84.0172 7.22085 84.0172 6.48769C84.0172 5.75452 83.8183 5.18124 83.4206 4.76786C83.0228 4.34668 82.4378 4.13608 81.6656 4.13608H79.0683V8.81589ZM101.472 10.7814H95.0142V14.8411H102.642V18H90.9076V0.965518H102.666V4.13608H95.0142V7.72783H101.472V10.7814Z" fill="#DD2242"/>
<path d="M4.66256 40H0.567734V22.9655H4.66256V40ZM22.0591 40H17.976L11.939 29.4002V40H7.83251V22.9655H11.939L17.9643 33.5653V22.9655H22.0591V40ZM24.9717 40V22.9655H30.4587C31.9641 22.9655 33.3173 23.3087 34.5185 23.9951C35.7196 24.6736 36.6556 25.6369 37.3264 26.8849C38.0049 28.125 38.3481 29.5172 38.3559 31.0616V31.8454C38.3559 33.4054 38.0244 34.8054 37.3615 36.0456C36.7063 37.2779 35.7781 38.2451 34.577 38.947C33.3836 39.6412 32.0499 39.9922 30.5757 40H24.9717ZM29.0782 26.1361V36.8411H30.5055C31.6833 36.8411 32.5881 36.4239 33.2198 35.5893C33.8516 34.7469 34.1675 33.499 34.1675 31.8454V31.1084C34.1675 29.4626 33.8516 28.2225 33.2198 27.3879C32.5881 26.5534 31.6677 26.1361 30.4587 26.1361H29.0782ZM55.2026 31.8337C55.2026 33.4951 54.8945 34.9653 54.2783 36.2445C53.6621 37.5236 52.7847 38.5103 51.6459 39.2044C50.515 39.8908 49.2241 40.234 47.7734 40.234C46.3227 40.234 45.0357 39.9025 43.9126 39.2395C42.7894 38.5688 41.9119 37.6133 41.2802 36.3732C40.6562 35.133 40.3286 33.7096 40.2974 32.1028V31.1435C40.2974 29.4743 40.6016 28.0041 41.21 26.7328C41.8261 25.4536 42.7036 24.467 43.8424 23.7728C44.9889 23.0786 46.2915 22.7315 47.75 22.7315C49.1929 22.7315 50.4799 23.0747 51.6108 23.7611C52.7418 24.4475 53.6193 25.4263 54.2432 26.6977C54.875 27.9612 55.1948 29.4119 55.2026 31.0499V31.8337ZM51.0259 31.1201C51.0259 29.4275 50.7412 28.1445 50.1718 27.2709C49.6102 26.3896 48.803 25.9489 47.75 25.9489C45.6909 25.9489 44.6028 27.4932 44.4858 30.5819L44.4741 31.8337C44.4741 33.5029 44.751 34.7859 45.3048 35.6829C45.8586 36.5798 46.6814 37.0283 47.7734 37.0283C48.8108 37.0283 49.6102 36.5876 50.1718 35.7063C50.7334 34.8249 51.0181 33.5575 51.0259 31.9039V31.1201ZM71.8621 40H67.7789L61.742 29.4002V40H57.6355V22.9655H61.742L67.7672 33.5653V22.9655H71.8621V40ZM85.3393 32.7814H78.8812V36.8411H86.5092V40H74.7746V22.9655H86.5326V26.1361H78.8812V29.7278H85.3393V32.7814ZM97.2839 35.4723C97.2839 34.8717 97.0694 34.4037 96.6404 34.0683C96.2192 33.733 95.4743 33.3859 94.4058 33.0271C93.3372 32.6683 92.4637 32.3212 91.7851 31.9858C89.5778 30.9017 88.4741 29.4119 88.4741 27.5166C88.4741 26.5729 88.7471 25.7422 89.2931 25.0246C89.8469 24.2993 90.6268 23.7377 91.633 23.3399C92.6392 22.9343 93.7701 22.7315 95.0259 22.7315C96.2504 22.7315 97.3463 22.9499 98.3134 23.3867C99.2884 23.8235 100.045 24.4475 100.583 25.2586C101.121 26.062 101.39 26.9823 101.39 28.0197H97.2956C97.2956 27.3255 97.0811 26.7874 96.6521 26.4052C96.2309 26.023 95.6576 25.8319 94.9323 25.8319C94.1991 25.8319 93.618 25.9957 93.189 26.3233C92.7679 26.6431 92.5573 27.0525 92.5573 27.5517C92.5573 27.9885 92.7913 28.3863 93.2592 28.7451C93.7272 29.0961 94.5501 29.4626 95.7278 29.8448C96.9056 30.2192 97.8727 30.6248 98.6293 31.0616C100.47 32.1223 101.39 33.5848 101.39 35.4489C101.39 36.9386 100.829 38.1086 99.7057 38.9587C98.5825 39.8089 97.0421 40.234 95.0844 40.234C93.7038 40.234 92.452 39.9883 91.3288 39.4969C90.2135 38.9977 89.3711 38.3192 88.8017 37.4612C88.2401 36.5954 87.9594 35.601 87.9594 34.4778H92.0776C92.0776 35.3904 92.3116 36.0651 92.7796 36.5018C93.2553 36.9308 94.0236 37.1453 95.0844 37.1453C95.7629 37.1453 96.2972 37.001 96.6872 36.7124C97.085 36.4161 97.2839 36.0027 97.2839 35.4723ZM108.187 40H104.092V22.9655H108.187V40ZM121.243 36.8177H115.616L114.633 40H110.246L116.493 22.9655H120.354L126.648 40H122.238L121.243 36.8177ZM116.599 33.6472H120.26L118.424 27.7389L116.599 33.6472Z" fill="white"/>
</svg>
