<svg width="127" height="38" viewBox="0 0 127 38" fill="none" xmlns="http://www.w3.org/2000/svg">
<path d="M10.8882 10.7814H4.43009V14.8411H12.0582V18H0.323567V0.965518H12.0816V4.13608H4.43009V7.72783H10.8882V10.7814ZM20.3993 6.62808L23.1838 0.965518H27.8753L23.1136 9.41256L28.004 18H23.2657L20.3993 12.2321L17.5329 18H12.8063L17.685 9.41256L12.935 0.965518H17.6148L20.3993 6.62808ZM33.7712 12.2204V18H29.6647V0.965518H36.4621C37.7647 0.965518 38.9151 1.20731 39.9135 1.69089C40.9196 2.16667 41.6957 2.84914 42.2417 3.7383C42.7954 4.61966 43.0723 5.62192 43.0723 6.74507C43.0723 8.4064 42.4757 9.73625 41.2823 10.7346C40.0968 11.7252 38.4666 12.2204 36.3919 12.2204H33.7712ZM33.7712 9.04988H36.4621C37.2577 9.04988 37.8622 8.85099 38.2755 8.4532C38.6967 8.05542 38.9073 7.49384 38.9073 6.76847C38.9073 5.97291 38.6928 5.33723 38.2638 4.86145C37.8349 4.38567 37.2499 4.14388 36.5089 4.13608H33.7712V9.04988ZM49.6936 14.8411H56.842V18H45.5871V0.965518H49.6936V14.8411ZM72.5656 9.83374C72.5656 11.4951 72.2575 12.9653 71.6413 14.2445C71.0251 15.5236 70.1477 16.5103 69.0089 17.2044C67.878 17.8908 66.5871 18.234 65.1364 18.234C63.6856 18.234 62.3987 17.9025 61.2755 17.2395C60.1524 16.5688 59.2749 15.6133 58.6431 14.3732C58.0192 13.133 57.6916 11.7096 57.6604 10.1028V9.14347C57.6604 7.47434 57.9646 6.00411 58.573 4.73276C59.1891 3.45361 60.0666 2.46695 61.2053 1.77278C62.3519 1.07861 63.6544 0.731528 65.113 0.731528C66.5559 0.731528 67.8429 1.07471 68.9738 1.76108C70.1048 2.44746 70.9822 3.42631 71.6062 4.69766C72.238 5.96121 72.5578 7.41195 72.5656 9.04988V9.83374ZM68.3888 9.12007C68.3888 7.42755 68.1041 6.1445 67.5348 5.27094C66.9732 4.38957 66.1659 3.94889 65.113 3.94889C63.0539 3.94889 61.9658 5.49323 61.8488 8.5819L61.8371 9.83374C61.8371 11.5029 62.114 12.7859 62.6678 13.6829C63.2216 14.5798 64.0444 15.0283 65.1364 15.0283C66.1737 15.0283 66.9732 14.5876 67.5348 13.7063C68.0963 12.8249 68.381 11.5575 68.3888 9.90394V9.12007ZM81.3279 11.9865H79.105V18H74.9984V0.965518H81.7023C83.7224 0.965518 85.3018 1.414 86.4406 2.31096C87.5793 3.20792 88.1487 4.47537 88.1487 6.1133C88.1487 7.29885 87.9069 8.28161 87.4233 9.06158C86.9475 9.84154 86.1988 10.4733 85.177 10.9569L88.7337 17.8245V18H84.3346L81.3279 11.9865ZM79.105 8.81589H81.7023C82.4822 8.81589 83.0672 8.6131 83.4572 8.20751C83.855 7.79413 84.0539 7.22085 84.0539 6.48769C84.0539 5.75452 83.855 5.18124 83.4572 4.76786C83.0594 4.34668 82.4744 4.13608 81.7023 4.13608H79.105V8.81589ZM101.509 10.7814H95.0508V14.8411H102.679V18H90.9443V0.965518H102.702V4.13608H95.0508V7.72783H101.509V10.7814ZM4.69918 37H0.604355V19.9655H4.69918V37ZM22.0957 37H18.0126L11.9757 26.4002V37H7.86913V19.9655H11.9757L18.0009 30.5653V19.9655H22.0957V37ZM25.0083 37V19.9655H30.4954C32.0007 19.9655 33.3539 20.3087 34.5551 20.9951C35.7562 21.6736 36.6922 22.6369 37.363 23.8849C38.0415 25.125 38.3847 26.5172 38.3925 28.0616V28.8454C38.3925 30.4054 38.061 31.8054 37.3981 33.0456C36.7429 34.2779 35.8147 35.2451 34.6136 35.947C33.4202 36.6412 32.0865 36.9922 30.6124 37H25.0083ZM29.1148 23.1361V33.8411H30.5422C31.7199 33.8411 32.6247 33.4239 33.2564 32.5893C33.8882 31.7469 34.2041 30.499 34.2041 28.8454V28.1084C34.2041 26.4626 33.8882 25.2225 33.2564 24.3879C32.6247 23.5534 31.7043 23.1361 30.4954 23.1361H29.1148ZM55.2392 28.8337C55.2392 30.4951 54.9311 31.9653 54.3149 33.2445C53.6988 34.5236 52.8213 35.5103 51.6826 36.2044C50.5516 36.8908 49.2608 37.234 47.81 37.234C46.3593 37.234 45.0723 36.9025 43.9492 36.2395C42.826 35.5688 41.9486 34.6133 41.3168 33.3732C40.6928 32.133 40.3652 30.7096 40.334 29.1028V28.1435C40.334 26.4743 40.6382 25.0041 41.2466 23.7328C41.8628 22.4536 42.7402 21.467 43.879 20.7728C45.0255 20.0786 46.3281 19.7315 47.7866 19.7315C49.2296 19.7315 50.5165 20.0747 51.6475 20.7611C52.7784 21.4475 53.6559 22.4263 54.2798 23.6977C54.9116 24.9612 55.2314 26.4119 55.2392 28.0499V28.8337ZM51.0625 28.1201C51.0625 26.4275 50.7778 25.1445 50.2084 24.2709C49.6468 23.3896 48.8396 22.9489 47.7866 22.9489C45.7275 22.9489 44.6395 24.4932 44.5225 27.5819L44.5108 28.8337C44.5108 30.5029 44.7876 31.7859 45.3414 32.6829C45.8952 33.5798 46.7181 34.0283 47.81 34.0283C48.8474 34.0283 49.6468 33.5876 50.2084 32.7063C50.77 31.8249 51.0547 30.5575 51.0625 28.9039V28.1201ZM71.8987 37H67.8156L61.7786 26.4002V37H57.6721V19.9655H61.7786L67.8039 30.5653V19.9655H71.8987V37ZM85.3759 29.7814H78.9178V33.8411H86.5459V37H74.8112V19.9655H86.5692V23.1361H78.9178V26.7278H85.3759V29.7814ZM97.3205 32.4723C97.3205 31.8717 97.106 31.4037 96.677 31.0683C96.2558 30.733 95.511 30.3859 94.4424 30.0271C93.3738 29.6683 92.5003 29.3212 91.8217 28.9858C89.6144 27.9017 88.5108 26.4119 88.5108 24.5166C88.5108 23.5729 88.7837 22.7422 89.3297 22.0246C89.8835 21.2993 90.6635 20.7377 91.6696 20.3399C92.6758 19.9343 93.8067 19.7315 95.0625 19.7315C96.287 19.7315 97.3829 19.9499 98.35 20.3867C99.325 20.8235 100.082 21.4475 100.62 22.2586C101.158 23.062 101.427 23.9823 101.427 25.0197H97.3322C97.3322 24.3255 97.1177 23.7874 96.6887 23.4052C96.2675 23.023 95.6943 22.8319 94.9689 22.8319C94.2357 22.8319 93.6546 22.9957 93.2257 23.3233C92.8045 23.6431 92.5939 24.0525 92.5939 24.5517C92.5939 24.9885 92.8279 25.3863 93.2959 25.7451C93.7638 26.0961 94.5867 26.4626 95.7644 26.8448C96.9422 27.2192 97.9094 27.6248 98.6659 28.0616C100.507 29.1223 101.427 30.5848 101.427 32.4489C101.427 33.9386 100.865 35.1086 99.7423 35.9587C98.6191 36.8089 97.0787 37.234 95.121 37.234C93.7404 37.234 92.4886 36.9883 91.3654 36.4969C90.2501 35.9977 89.4077 35.3192 88.8383 34.4612C88.2768 33.5954 87.996 32.601 87.996 31.4778H92.1142C92.1142 32.3904 92.3482 33.0651 92.8162 33.5018C93.292 33.9308 94.0602 34.1453 95.121 34.1453C95.7995 34.1453 96.3338 34.001 96.7238 33.7124C97.1216 33.4161 97.3205 33.0027 97.3205 32.4723ZM108.224 37H104.129V19.9655H108.224V37ZM121.28 33.8177H115.652L114.67 37H110.282L116.53 19.9655H120.391L126.685 37H122.274L121.28 33.8177ZM116.635 30.6472H120.297L118.46 24.7389L116.635 30.6472Z" fill="white"/>
</svg>
